<svg width="33" height="28" viewBox="0 0 33 28" fill="none" xmlns="http://www.w3.org/2000/svg">
<path d="M1.65001 28C1.18251 28 0.790355 27.8507 0.473555 27.552C0.156756 27.2533 -0.00109429 26.8841 5.70934e-06 26.4444V10.8889C5.70934e-06 10.4481 0.158406 10.0784 0.475206 9.77978C0.792006 9.48111 1.18361 9.3323 1.65001 9.33333H7.425C7.8925 9.33333 8.28465 9.48267 8.60145 9.78133C8.91825 10.08 9.0761 10.4492 9.075 10.8889V26.4444C9.075 26.8852 8.9166 27.2549 8.5998 27.5535C8.283 27.8522 7.8914 28.001 7.425 28H1.65001ZM13.6125 28C13.145 28 12.7529 27.8507 12.4361 27.552C12.1193 27.2533 11.9614 26.8841 11.9625 26.4444V1.55556C11.9625 1.11482 12.1209 0.745116 12.4377 0.44645C12.7545 0.147783 13.1461 -0.00103165 13.6125 5.38255e-06H19.3875C19.855 5.38255e-06 20.2471 0.149339 20.5639 0.448005C20.8807 0.746672 21.0386 1.11586 21.0375 1.55556V26.4444C21.0375 26.8852 20.8791 27.2549 20.5623 27.5535C20.2455 27.8522 19.8539 28.001 19.3875 28H13.6125ZM25.575 28C25.1075 28 24.7153 27.8507 24.3985 27.552C24.0817 27.2533 23.9239 26.8841 23.925 26.4444V14C23.925 13.5593 24.0834 13.1896 24.4002 12.8909C24.717 12.5922 25.1086 12.4434 25.575 12.4444H31.35C31.8175 12.4444 32.2096 12.5938 32.5264 12.8924C32.8432 13.1911 33.0011 13.5603 33 14V26.4444C33 26.8852 32.8416 27.2549 32.5248 27.5535C32.208 27.8522 31.8164 28.001 31.35 28H25.575Z" fill="white"/>
</svg>
